# xmcd CD database file
#
# Track frame offsets:
#	150
#	25277
#	47294
#	66192
#	87245
#	109043
#	128453
#	150652
#	170101
#	193831
#	216052
#	238803
#	257099
#
# Disc length: 3665 seconds
#
# Revision: 0
# Processed by: cddbd v1.5.2PL0 Copyright (c) Steve Scherf et al.
# Submitted via: CDex 1.51
#
DISCID=ae0e4f0d
DTITLE=Bajka - Escape from Wonderland
DYEAR=2010
DGENRE=Jazz
TTITLE0=True (Bahama Soul Club Remix)
TTITLE1=Bajka - The Beaver's Lesson (mop mop jamaica aroma remix)
TTITLE2=Bajka - The Bellman's Speech (Valique seaside remix)
TTITLE3=Bajka - The Baker's Tale - (Fab Samperi Remix)
TTITLE4=Bajka - The Hunting (Solo Moderna remix)
TTITLE5=Bajka - The Landing (Bebo Best remix)
TTITLE6=Bajka - The Banker's Fate (Minimatic Remix)
TTITLE7=Bajka - The Barrister's Dream (Renegades Of Jazz Remix)
TTITLE8=Bajka - The Vanishing (Dr Rubberfunk remix)
TTITLE9=Bajka - The Beaver's Lesson (Smoove Remix)
TTITLE10=Bajka - The Bellman's Speech (Jojo Effect remix)
TTITLE11=Bajka - The Hunting (Club des Belugas remix)
TTITLE12=Bajka - The Barrister's Dream (Basement Freaks Remix)
EXTD=YEAR: 2010
EXTT0=
EXTT1=
EXTT2=
EXTT3=
EXTT4=
EXTT5=
EXTT6=
EXTT7=
EXTT8=
EXTT9=
EXTT10=
EXTT11=
EXTT12=
PLAYORDER=
